<svg width="35" height="40" viewBox="0 0 35 40" fill="none" xmlns="http://www.w3.org/2000/svg">
<path d="M6.8069 39.2241H28.1931C31.9466 39.2241 35 36.1707 35 32.4172V12.069C35 11.4052 34.4569 10.8621 33.7931 10.8621H26.5517V9.05172C26.5517 4.06121 22.4905 0 17.5 0C12.5095 0 8.44828 4.06121 8.44828 9.05172V10.8621H1.2069C0.543103 10.8621 0 11.4052 0 12.069V32.4172C0 36.1707 3.05345 39.2241 6.8069 39.2241ZM10.8621 9.05172C10.8621 5.38879 13.8371 2.41379 17.5 2.41379C21.1629 2.41379 24.1379 5.38879 24.1379 9.05172V10.8621H10.8621V9.05172ZM2.41379 13.2759H8.44828V16.2931C8.44828 16.9569 8.99138 17.5 9.65517 17.5C10.319 17.5 10.8621 16.9569 10.8621 16.2931V13.2759H24.1379V16.2931C24.1379 16.9569 24.681 17.5 25.3448 17.5C26.0086 17.5 26.5517 16.9569 26.5517 16.2931V13.2759H32.5862V32.4172C32.5862 34.8371 30.6129 36.8103 28.1931 36.8103H6.8069C4.38707 36.8103 2.41379 34.8371 2.41379 32.4172V13.2759Z" fill="#15223F"/>
</svg>
