<svg width="17" height="20" viewBox="0 0 17 20" fill="none" xmlns="http://www.w3.org/2000/svg">
<path d="M10.5 7.5H12.1667V9.16666H10.5V7.5ZM12.1667 4.16667H10.5V5.83333H12.1667V4.16667ZM7.16667 12.5H8.83333V10.8333H7.16667V12.5ZM8.83333 4.16667H7.16667V5.83333H8.83333V4.16667ZM7.16667 9.16666H8.83333V7.5H7.16667V9.16666ZM5.5 4.16667H3.83333V5.83333H5.5V4.16667ZM5.5 7.5H3.83333V9.16666H5.5V7.5ZM10.125 17.5H8.83333V14.5833H7.16667V17.5H2.16667V2.5H13.8333V9.19166C14.425 9.24166 14.9917 9.425 15.5 9.69166V0.833332H0.5V19.1667H11.2583C10.9167 18.7 10.5 18.1333 10.125 17.5ZM3.83333 15.8333H5.5V14.1667H3.83333V15.8333ZM5.5 10.8333H3.83333V12.5H5.5V10.8333ZM16.3333 13.75C16.3333 15.9167 13.4167 19.1667 13.4167 19.1667C13.4167 19.1667 10.5 15.9167 10.5 13.75C10.5 12.1667 11.8333 10.8333 13.4167 10.8333C15 10.8333 16.3333 12.1667 16.3333 13.75ZM14.4167 13.8333C14.4167 13.3333 13.9167 12.8333 13.4167 12.8333C12.9167 12.8333 12.4167 13.25 12.4167 13.8333C12.4167 14.3333 12.8333 14.8333 13.4167 14.8333C14 14.8333 14.5 14.3333 14.4167 13.8333Z" fill="black"/>
</svg>
