<svg width="20" height="12" viewBox="0 0 20 12" fill="none" xmlns="http://www.w3.org/2000/svg">
<path fill-rule="evenodd" clip-rule="evenodd" d="M19.5417 0.956657C19.68 0.501656 19.5417 0.166656 18.8792 0.166656H16.6917C16.135 0.166656 15.8783 0.455823 15.7392 0.77499C15.7392 0.77499 14.6267 3.43832 13.0508 5.16832C12.5408 5.66999 12.3092 5.82916 12.0308 5.82916C11.8917 5.82916 11.6825 5.66999 11.6825 5.21416V0.956657C11.6825 0.40999 11.5292 0.166656 11.0658 0.166656H7.62583C7.27833 0.166656 7.06917 0.41999 7.06917 0.660823C7.06917 1.17832 7.8575 1.29832 7.93833 2.75499V5.91999C7.93833 6.61416 7.81083 6.73999 7.5325 6.73999C6.79083 6.73999 4.98667 4.06416 3.91583 1.00249C3.70833 0.406656 3.49833 0.166656 2.93917 0.166656H0.75C0.125 0.166656 0 0.455823 0 0.77499C0 1.34332 0.741667 4.16666 3.45417 7.90082C5.2625 10.4508 7.80833 11.8333 10.1275 11.8333C11.5183 11.8333 11.69 11.5267 11.69 10.9975V9.06999C11.69 8.45582 11.8217 8.33332 12.2625 8.33332C12.5875 8.33332 13.1433 8.49332 14.4417 9.72249C15.925 11.18 16.1692 11.8333 17.0042 11.8333H19.1917C19.8167 11.8333 20.13 11.5267 19.95 10.92C19.7517 10.3167 19.0433 9.44082 18.1042 8.40166C17.5942 7.80999 16.8292 7.17249 16.5967 6.85332C16.2725 6.44416 16.365 6.26166 16.5967 5.89749C16.5967 5.89749 19.2633 2.20916 19.5408 0.956657H19.5417Z" fill="black"/>
</svg>
