<svg width="20" height="19" viewBox="0 0 20 19" fill="none" xmlns="http://www.w3.org/2000/svg">
<path d="M10 19C9.71527 19 9.44077 18.8899 9.22684 18.6898C8.41888 17.9354 7.63992 17.2265 6.95267 16.6011L6.94916 16.5979C4.93423 14.7644 3.19427 13.181 1.98364 11.6212C0.630341 9.87752 0 8.22423 0 6.41811C0 4.66332 0.563507 3.04441 1.58661 1.8594C2.62192 0.660369 4.04251 0 5.58716 0C6.74164 0 7.79892 0.389737 8.72955 1.15829C9.19922 1.54624 9.62494 2.02103 10 2.57484C10.3752 2.02103 10.8008 1.54624 11.2706 1.15829C12.2012 0.389737 13.2585 0 14.413 0C15.9575 0 17.3782 0.660369 18.4135 1.8594C19.4366 3.04441 20 4.66332 20 6.41811C20 8.22423 19.3698 9.87752 18.0165 11.6211C16.8059 13.181 15.0661 14.7642 13.0515 16.5975C12.363 17.2239 11.5828 17.9339 10.773 18.6901C10.5592 18.8899 10.2846 19 10 19ZM5.58716 1.251C4.37363 1.251 3.25882 1.76815 2.44781 2.7073C1.62476 3.66063 1.17142 4.97843 1.17142 6.41811C1.17142 7.93714 1.70013 9.29568 2.88559 10.823C4.03137 12.2994 5.73563 13.8502 7.70889 15.6459L7.71255 15.6491C8.4024 16.2769 9.18442 16.9886 9.99832 17.7485C10.8171 16.9871 11.6003 16.2743 12.2916 15.6455C14.2647 13.8498 15.9688 12.2994 17.1146 10.823C18.2999 9.29568 18.8286 7.93714 18.8286 6.41811C18.8286 4.97843 18.3752 3.66063 17.5522 2.7073C16.7413 1.76815 15.6264 1.251 14.413 1.251C13.524 1.251 12.7078 1.55276 11.9872 2.14779C11.3449 2.6783 10.8975 3.34893 10.6352 3.81818C10.5003 4.05949 10.2629 4.20352 10 4.20352C9.73709 4.20352 9.49966 4.05949 9.36478 3.81818C9.10263 3.34893 8.65524 2.6783 8.01285 2.14779C7.29218 1.55276 6.47598 1.251 5.58716 1.251Z" fill="#949494"/>
</svg>
