<svg width="39" height="35" viewBox="0 0 39 35" fill="none" xmlns="http://www.w3.org/2000/svg">
<path d="M19.5 34.6974C18.9447 34.6974 18.4095 34.4963 17.9923 34.1309C16.4168 32.7532 14.8978 31.4586 13.5577 30.3166L13.5508 30.3107C9.62174 26.9624 6.22882 24.0709 3.8681 21.2225C1.22916 18.0381 0 15.0189 0 11.7206C0 8.51606 1.09884 5.55964 3.09388 3.39559C5.11273 1.20595 7.88288 0 10.8949 0C13.1462 0 15.2079 0.71173 17.0226 2.11525C17.9384 2.82371 18.7686 3.69076 19.5 4.70212C20.2316 3.69076 21.0615 2.82371 21.9776 2.11525C23.7924 0.71173 25.8541 0 28.1053 0C31.117 0 33.8875 1.20595 35.9063 3.39559C37.9014 5.55964 38.9999 8.51606 38.9999 11.7206C38.9999 15.0189 37.7711 18.0381 35.1321 21.2222C32.7714 24.0709 29.3788 26.9621 25.4503 30.3101C24.1078 31.4539 22.5864 32.7506 21.0073 34.1315C20.5905 34.4963 20.0549 34.6974 19.5 34.6974ZM10.8949 2.28456C8.52856 2.28456 6.35469 3.22897 4.77323 4.94402C3.16827 6.68496 2.28426 9.09151 2.28426 11.7206C2.28426 14.4946 3.31526 16.9756 5.62689 19.7648C7.86116 22.4608 11.1844 25.2929 15.0323 28.5721L15.0395 28.5781C16.3847 29.7245 17.9096 31.0242 19.4967 32.412C21.0933 31.0215 22.6206 29.7198 23.9685 28.5715C27.8161 25.2923 31.1391 22.4608 33.3733 19.7648C35.6847 16.9756 36.7157 14.4946 36.7157 11.7206C36.7157 9.09151 35.8317 6.68496 34.2267 4.94402C32.6455 3.22897 30.4714 2.28456 28.1053 2.28456C26.3718 2.28456 24.7802 2.83561 23.3749 3.92225C22.1225 4.89106 21.2501 6.11576 20.7386 6.97269C20.4756 7.41335 20.0126 7.67638 19.5 7.67638C18.9873 7.67638 18.5243 7.41335 18.2613 6.97269C17.7501 6.11576 16.8777 4.89106 15.625 3.92225C14.2197 2.83561 12.6281 2.28456 10.8949 2.28456Z" fill="#15223F"/>
</svg>
