<svg width="19" height="19" viewBox="0 0 19 19" fill="none" xmlns="http://www.w3.org/2000/svg">
<path d="M14.4453 12.5689C13.8246 11.9561 13.0497 11.9561 12.4329 12.5689C11.9624 13.0354 11.4919 13.502 11.0293 13.9764C10.9028 14.1069 10.7961 14.1346 10.6419 14.0476C10.3374 13.8815 10.0132 13.7471 9.72064 13.5652C8.35661 12.7073 7.21398 11.6042 6.20183 10.3627C5.69971 9.74593 5.25294 9.08566 4.94059 8.34236C4.87733 8.19212 4.88919 8.09328 5.01176 7.97071C5.48225 7.51604 5.94088 7.0495 6.40347 6.58296C7.04793 5.93455 7.04793 5.17543 6.39952 4.52307C6.03182 4.15142 5.66412 3.78768 5.29643 3.41603C4.91687 3.03647 4.54127 2.65296 4.15776 2.27735C3.53702 1.67243 2.76209 1.67243 2.14531 2.28131C1.67087 2.74785 1.21619 3.22625 0.733835 3.68488C0.287064 4.10793 0.0617023 4.62586 0.0142576 5.23078C-0.0608631 6.21526 0.180314 7.14439 0.520334 8.04979C1.21619 9.92385 2.27579 11.5884 3.56075 13.1145C5.29643 15.1783 7.36818 16.8112 9.79181 17.9894C10.883 18.5192 12.0138 18.9265 13.2434 18.9937C14.0895 19.0411 14.8249 18.8276 15.414 18.1674C15.8173 17.7166 16.272 17.3054 16.699 16.8745C17.3316 16.234 17.3355 15.4591 16.7069 14.8265C15.9557 14.0713 15.2005 13.3201 14.4453 12.5689Z" fill="white"/>
<path d="M13.6901 9.41775L15.1491 9.16867C14.9197 7.82836 14.2871 6.61457 13.3264 5.64986C12.3103 4.63375 11.0253 3.99325 9.60989 3.79556L9.4043 5.26239C10.4995 5.41659 11.4958 5.9108 12.2826 6.69759C13.0259 7.44089 13.5122 8.38188 13.6901 9.41775Z" fill="white"/>
<path d="M15.9715 3.07599C14.2873 1.39171 12.1562 0.328159 9.80374 0L9.59814 1.46683C11.6304 1.7515 13.4728 2.67272 14.9278 4.12373C16.3076 5.50358 17.213 7.24717 17.5412 9.16473L19.0001 8.91564C18.6166 6.69365 17.5688 4.67725 15.9715 3.07599Z" fill="white"/>
</svg>
